<svg width="512" height="512" viewBox="0 0 512 512" fill="none" xmlns="http://www.w3.org/2000/svg">
<path d="M411.383 409.465L331.172 466.039L282.957 499.918C274.094 506.125 261.879 503.984 255.648 495.137L238.242 470.562C235.184 466.105 230.375 463.156 225.016 462.457C180.301 456.387 150.094 413.465 150.094 413.465L14.4219 220.867C4.98437 208.027 6.98828 190.094 19.0312 179.652C25.3789 174.559 33.5508 172.309 41.6094 173.441C49.6719 174.57 56.9102 178.98 61.6094 185.625L53.0781 173.508L26.8789 136.305L17.3242 122.82C9.93359 112.309 10.2109 98.2148 18.0156 88.0039C19.875 85.6328 22.0547 83.5391 24.5 81.7734C30.8672 77.2773 38.7656 75.5 46.4453 76.8281C54.1289 78.1562 60.9687 82.4844 65.4609 88.8594L42.9297 56.7734C36.6797 48.1797 35.543 36.8867 39.957 27.2227C44.375 17.5586 53.6562 11.0234 64.2461 10.125C74.832 9.23047 85.082 14.1094 91.0586 22.8945L113.672 54.9805C107.418 46.3906 106.281 35.0937 110.699 25.4297C115.113 15.7656 124.398 9.23047 134.984 8.33594C145.574 7.4375 155.824 12.3164 161.801 21.1016L197.469 71.7891L269.148 173.516C276.223 184.012 284.922 193.316 294.922 201.078C300.035 204.879 306.68 205.961 312.738 203.977C318.793 201.992 323.512 197.188 325.383 191.094V191.012C324.871 174.969 321.973 161.145 321.629 148.598C320.699 113.188 316.773 76.918 332.816 65.5703C348.859 54.2227 368.914 74.7852 371.473 102.434C375.477 145.102 394.59 181.195 406.879 232.566C414.73 265.848 409.184 308.516 404.316 334.539C401.41 350.121 404.918 366.215 414.047 379.172L416.094 382.156C419.117 386.395 420.32 391.664 419.438 396.793C418.551 401.922 415.652 406.484 411.383 409.465Z" fill="#E0B88C"/>
<path d="M314.078 290.32C313.219 290.926 312.258 291.367 311.234 291.617C306.664 292.762 302.031 289.984 300.887 285.414C296.371 267.672 298.691 248.879 307.379 232.766C310.18 227.449 317.105 215.305 318.676 212.285C322.453 202.312 324.512 191.773 324.77 181.113C328.898 190.211 331.418 199.953 332.227 209.91C330.57 220.664 327.266 231.102 322.422 240.844C315.746 253.23 313.969 267.672 317.441 281.309C318.281 284.719 316.945 288.297 314.078 290.32V290.32Z" fill="#CBB292"/>
<path d="M175.785 381.797C173.934 383.121 171.625 383.645 169.383 383.258C167.141 382.867 165.145 381.602 163.84 379.734L129.93 331.59C128.172 329.098 127.879 325.855 129.16 323.09C130.441 320.324 133.098 318.449 136.137 318.176C139.172 317.898 142.125 319.266 143.879 321.758L177.793 369.902C180.52 373.742 179.625 379.066 175.785 381.797Z" fill="#FEE7CE"/>
<path d="M217.703 424.285C215.852 425.586 213.562 426.098 211.336 425.711C201.582 424.43 192.691 419.461 186.488 411.828C184.051 408 185.035 402.937 188.727 400.301C192.414 397.664 197.523 398.375 200.355 401.922C204.016 405.824 208.934 408.309 214.246 408.941C217.633 409.543 220.332 412.117 221.086 415.473C221.84 418.828 220.508 422.312 217.703 424.305V424.285ZM200.441 402.004L200.535 401.922L200.441 402.004Z" fill="#FEE7CE"/>
<path d="M377.625 395.672L369.605 401.324C365.77 403.684 360.762 402.66 358.16 398.98C355.562 395.305 356.27 390.238 359.773 387.414L367.797 381.766C371.648 379.051 376.973 379.973 379.687 383.824C382.402 387.68 381.477 393 377.625 395.715V395.672Z" fill="#FEE7CE"/>
<path d="M337.512 423.926L281.336 463.496C277.484 466.211 272.16 465.289 269.445 461.437C266.73 457.582 267.652 452.258 271.504 449.543L327.68 409.977C331.531 407.262 336.855 408.184 339.57 412.035C342.285 415.891 341.363 421.211 337.512 423.926V423.926Z" fill="#FEE7CE"/>
<path d="M119.465 512C53.5156 511.93 0.0703125 458.484 0 392.535C0 387.82 3.82031 384 8.53516 384C13.2461 384 17.0664 387.82 17.0664 392.535C17.1289 449.062 62.9375 494.871 119.465 494.934C124.18 494.934 128 498.754 128 503.465C128 508.18 124.18 512 119.465 512Z" fill="#4482C3"/>
<path d="M128 477.867C76.1836 477.805 34.1953 435.816 34.1328 384C34.1328 379.289 37.9531 375.465 42.668 375.465C47.3789 375.465 51.1992 379.289 51.1992 384C51.2461 426.395 85.6055 460.754 128 460.801C132.711 460.801 136.535 464.621 136.535 469.332C136.535 474.047 132.711 477.867 128 477.867V477.867Z" fill="#4482C3"/>
<path d="M503.465 128C498.754 128 494.934 124.18 494.934 119.465C494.871 62.9375 449.062 17.1289 392.535 17.0664C387.82 17.0664 384 13.2461 384 8.53516C384 3.82031 387.82 0 392.535 0C458.484 0.0703125 511.93 53.5156 512 119.465C512 124.18 508.18 128 503.465 128V128Z" fill="#4482C3"/>
<path d="M469.332 136.535C464.621 136.535 460.801 132.711 460.801 128C460.754 85.6055 426.395 51.2461 384 51.1992C379.289 51.1992 375.465 47.3789 375.465 42.668C375.465 37.9531 379.289 34.1328 384 34.1328C435.816 34.1953 477.805 76.1836 477.867 128C477.867 132.711 474.047 136.535 469.332 136.535Z" fill="#4482C3"/>
<path d="M119.152 267.211C120.906 269.707 121.199 272.945 119.918 275.711C118.641 278.48 115.98 280.352 112.945 280.629C109.906 280.902 106.953 279.535 105.199 277.043L47.6328 195.465C43.1328 189.086 36.2852 184.75 28.5938 183.406C23.875 182.598 19.0273 182.934 14.4648 184.387C15.7852 182.617 17.3203 181.012 19.0312 179.609C22.8672 176.543 27.418 174.488 32.2578 173.637C35.6563 173.004 39.1406 172.988 42.5469 173.586C50.2422 174.93 57.0859 179.266 61.5859 185.652L119.152 267.211Z" fill="#CBB292"/>
<path d="M65.4492 88.875L161.57 225.332C163.426 227.82 163.785 231.117 162.508 233.945C161.23 236.777 158.52 238.688 155.426 238.941C152.332 239.191 149.348 237.746 147.625 235.16L51.5 98.7031C47.0195 92.2852 40.1445 87.9414 32.4258 86.6485C27.6523 85.8438 22.75 86.211 18.1523 87.7227C20.0156 85.4766 22.1523 83.4727 24.5078 81.75C30.8711 77.2735 38.7422 75.4961 46.4141 76.8008C54.1211 78.1055 60.9844 82.4571 65.4492 88.875Z" fill="#CBB292"/>
<path d="M91.1016 22.8945L113.707 54.9883L149.332 105.684L209.801 191.379C211.555 193.871 211.848 197.109 210.57 199.875C209.289 202.645 206.629 204.516 203.594 204.793C200.559 205.066 197.605 203.699 195.848 201.207L135.355 115.516L99.7539 64.8516L77.1484 32.7266C69.6602 22.1211 56.1328 17.6406 43.793 21.6758C45.5547 19.3789 47.6602 17.3633 50.0312 15.7031C63.3711 6.39845 81.7188 9.61329 91.1016 22.8945Z" fill="#CBB292"/>
<path d="M309.762 204.672C307.031 209.625 302.293 213.156 296.762 214.348C291.234 215.539 285.461 214.277 280.934 210.883C270.949 203.105 262.25 193.805 255.156 183.32L147.824 30.957C140.426 20.3555 126.98 15.8164 114.672 19.7617C116.383 17.5 118.441 15.5195 120.773 13.9024C127.156 9.41017 135.066 7.64454 142.754 9.00001C150.441 10.3594 157.273 14.7227 161.73 21.1289L269.09 173.5C276.187 183.977 284.887 193.273 294.871 201.055C299.164 204.168 304.516 205.469 309.762 204.672Z" fill="#CBB292"/>
</svg>
